<svg width="111" height="33" viewBox="0 0 111 33" fill="none" xmlns="http://www.w3.org/2000/svg">
<path d="M9.57129 16.3838H3.41211V12.499H9.57129C10.5231 12.499 11.2979 12.3441 11.8955 12.0342C12.4932 11.7132 12.9303 11.2705 13.207 10.7061C13.4837 10.1416 13.6221 9.50521 13.6221 8.79688C13.6221 8.07747 13.4837 7.40788 13.207 6.78809C12.9303 6.16829 12.4932 5.67025 11.8955 5.29395C11.2979 4.91764 10.5231 4.72949 9.57129 4.72949H5.13867V25H0.158203V0.828125H9.57129C11.4639 0.828125 13.0853 1.17122 14.4355 1.85742C15.7969 2.53255 16.8372 3.46777 17.5566 4.66309C18.276 5.8584 18.6357 7.22526 18.6357 8.76367C18.6357 10.3242 18.276 11.6745 17.5566 12.8145C16.8372 13.9544 15.7969 14.8343 14.4355 15.4541C13.0853 16.0739 11.4639 16.3838 9.57129 16.3838ZM31.2695 20.9492V12.9473C31.2695 12.3717 31.1755 11.8792 30.9873 11.4697C30.7992 11.0492 30.5059 10.7227 30.1074 10.4902C29.7201 10.2578 29.2165 10.1416 28.5967 10.1416C28.0654 10.1416 27.6061 10.2357 27.2188 10.4238C26.8314 10.6009 26.5326 10.861 26.3223 11.2041C26.112 11.5361 26.0068 11.929 26.0068 12.3828H21.2256C21.2256 11.6191 21.4027 10.8942 21.7568 10.208C22.111 9.52181 22.6257 8.91862 23.3008 8.39844C23.9759 7.86719 24.7783 7.45215 25.708 7.15332C26.6488 6.85449 27.7002 6.70508 28.8623 6.70508C30.2568 6.70508 31.4964 6.9375 32.5811 7.40234C33.6657 7.86719 34.5179 8.56445 35.1377 9.49414C35.7686 10.4238 36.084 11.5859 36.084 12.9805V20.667C36.084 21.652 36.1449 22.46 36.2666 23.0908C36.3883 23.7106 36.5654 24.2529 36.7979 24.7178V25H31.9668C31.7344 24.513 31.5573 23.9043 31.4355 23.1738C31.3249 22.4323 31.2695 21.6908 31.2695 20.9492ZM31.9004 14.0596L31.9336 16.7656H29.2607C28.6299 16.7656 28.082 16.8376 27.6172 16.9814C27.1523 17.1253 26.7705 17.3301 26.4717 17.5957C26.1729 17.8503 25.9515 18.1491 25.8076 18.4922C25.6748 18.8353 25.6084 19.2116 25.6084 19.6211C25.6084 20.0306 25.7025 20.4014 25.8906 20.7334C26.0788 21.0544 26.3499 21.3089 26.7041 21.4971C27.0583 21.6742 27.4733 21.7627 27.9492 21.7627C28.6686 21.7627 29.2939 21.6188 29.8252 21.3311C30.3564 21.0433 30.766 20.6891 31.0537 20.2686C31.3525 19.848 31.5075 19.4495 31.5186 19.0732L32.7803 21.0986C32.6032 21.5524 32.3597 22.0228 32.0498 22.5098C31.751 22.9967 31.3691 23.4561 30.9043 23.8877C30.4395 24.3083 29.8805 24.6569 29.2275 24.9336C28.5745 25.1992 27.7998 25.332 26.9033 25.332C25.7633 25.332 24.7285 25.1051 23.7988 24.6514C22.8802 24.1865 22.1497 23.5501 21.6074 22.7422C21.0762 21.9232 20.8105 20.9935 20.8105 19.9531C20.8105 19.0124 20.9876 18.1768 21.3418 17.4463C21.696 16.7158 22.2161 16.1016 22.9023 15.6035C23.5996 15.0944 24.4684 14.7126 25.5088 14.458C26.5492 14.1924 27.7555 14.0596 29.1279 14.0596H31.9004ZM44.833 22.9746L49.5977 7.03711H54.7275L47.5059 27.7061C47.3509 28.1598 47.1406 28.6468 46.875 29.167C46.6204 29.6872 46.2718 30.1797 45.8291 30.6445C45.3975 31.1204 44.8496 31.5078 44.1855 31.8066C43.5326 32.1055 42.7301 32.2549 41.7783 32.2549C41.3245 32.2549 40.9538 32.2272 40.666 32.1719C40.3783 32.1165 40.0352 32.0391 39.6367 31.9395V28.4365C39.7585 28.4365 39.8857 28.4365 40.0186 28.4365C40.1514 28.4476 40.2786 28.4531 40.4004 28.4531C41.0312 28.4531 41.5459 28.3812 41.9443 28.2373C42.3428 28.0934 42.6637 27.8721 42.9072 27.5732C43.1507 27.2855 43.3444 26.9092 43.4883 26.4443L44.833 22.9746ZM42.8408 7.03711L46.7422 20.0527L47.4229 25.1162L44.1689 25.4648L37.7109 7.03711H42.8408ZM61.418 10.7559V25H56.6201V7.03711H61.1191L61.418 10.7559ZM60.7539 15.3877H59.4258C59.4258 14.137 59.5752 12.986 59.874 11.9346C60.1839 10.8721 60.6322 9.95345 61.2188 9.17871C61.8164 8.3929 62.5524 7.78418 63.4268 7.35254C64.3011 6.9209 65.3138 6.70508 66.4648 6.70508C67.2617 6.70508 67.9922 6.82682 68.6562 7.07031C69.3203 7.30273 69.8903 7.6735 70.3662 8.18262C70.8532 8.68066 71.2295 9.33366 71.4951 10.1416C71.7607 10.9385 71.8936 11.8958 71.8936 13.0137V25H67.1123V13.5449C67.1123 12.7259 67.0016 12.0951 66.7803 11.6523C66.5589 11.2096 66.2435 10.8997 65.834 10.7227C65.4355 10.5456 64.9541 10.457 64.3896 10.457C63.7699 10.457 63.2275 10.5843 62.7627 10.8389C62.3089 11.0934 61.9326 11.4476 61.6338 11.9014C61.335 12.3441 61.1136 12.8643 60.9697 13.4619C60.8258 14.0596 60.7539 14.7015 60.7539 15.3877ZM71.4453 14.8398L69.7354 15.0557C69.7354 13.8825 69.8792 12.7923 70.167 11.7852C70.4658 10.778 70.903 9.89258 71.4785 9.12891C72.0651 8.36523 72.79 7.77311 73.6533 7.35254C74.5166 6.9209 75.5127 6.70508 76.6416 6.70508C77.5049 6.70508 78.2907 6.83236 78.999 7.08691C79.7074 7.3304 80.3105 7.72331 80.8086 8.26562C81.3177 8.79688 81.7051 9.49414 81.9707 10.3574C82.2474 11.2207 82.3857 12.2777 82.3857 13.5283V25H77.5879V13.5283C77.5879 12.6982 77.4772 12.0674 77.2559 11.6357C77.0456 11.193 76.7357 10.8887 76.3262 10.7227C75.9277 10.5456 75.4518 10.457 74.8984 10.457C74.3229 10.457 73.8193 10.5732 73.3877 10.8057C72.9561 11.027 72.5964 11.3369 72.3086 11.7354C72.0208 12.1338 71.805 12.5986 71.6611 13.1299C71.5173 13.6501 71.4453 14.2201 71.4453 14.8398ZM94.3555 25.332C92.9609 25.332 91.7103 25.1107 90.6035 24.668C89.4967 24.2142 88.556 23.5889 87.7812 22.792C87.0176 21.9951 86.431 21.071 86.0215 20.0195C85.612 18.957 85.4072 17.8281 85.4072 16.6328V15.9688C85.4072 14.6074 85.6009 13.3623 85.9883 12.2334C86.3757 11.1045 86.929 10.125 87.6484 9.29492C88.3789 8.46484 89.2643 7.82845 90.3047 7.38574C91.3451 6.93197 92.5182 6.70508 93.8242 6.70508C95.097 6.70508 96.2259 6.91536 97.2109 7.33594C98.196 7.75651 99.0205 8.35417 99.6846 9.12891C100.36 9.90365 100.869 10.8333 101.212 11.918C101.555 12.9915 101.727 14.1868 101.727 15.5039V17.4961H87.4492V14.3086H97.0283V13.9434C97.0283 13.2793 96.9066 12.6872 96.6631 12.167C96.4307 11.6357 96.0765 11.2152 95.6006 10.9053C95.1247 10.5954 94.516 10.4404 93.7744 10.4404C93.1436 10.4404 92.6012 10.5788 92.1475 10.8555C91.6937 11.1322 91.3229 11.5195 91.0352 12.0176C90.7585 12.5156 90.5482 13.1022 90.4043 13.7773C90.2715 14.4414 90.2051 15.1719 90.2051 15.9688V16.6328C90.2051 17.3522 90.3047 18.0163 90.5039 18.625C90.7142 19.2337 91.0075 19.7594 91.3838 20.2021C91.7712 20.6449 92.236 20.988 92.7783 21.2314C93.3317 21.4749 93.957 21.5967 94.6543 21.5967C95.5176 21.5967 96.32 21.4307 97.0615 21.0986C97.8141 20.7555 98.4616 20.2409 99.0039 19.5547L101.328 22.0781C100.952 22.6204 100.437 23.1406 99.7842 23.6387C99.1423 24.1367 98.3675 24.5462 97.46 24.8672C96.5524 25.1771 95.5176 25.332 94.3555 25.332ZM104.682 22.6924C104.682 21.984 104.925 21.3919 105.412 20.916C105.91 20.4401 106.569 20.2021 107.388 20.2021C108.207 20.2021 108.86 20.4401 109.347 20.916C109.845 21.3919 110.094 21.984 110.094 22.6924C110.094 23.4007 109.845 23.9928 109.347 24.4688C108.86 24.9447 108.207 25.1826 107.388 25.1826C106.569 25.1826 105.91 24.9447 105.412 24.4688C104.925 23.9928 104.682 23.4007 104.682 22.6924Z" fill="white"/>
</svg>
