<svg width="24" height="24" viewBox="0 0 24 24" fill="none" xmlns="http://www.w3.org/2000/svg">
<path d="M12 22.8534C12.4199 22.8437 12.8229 22.6858 13.1377 22.4077C13.4525 22.1295 13.6587 21.749 13.72 21.3334H10.2133C10.2763 21.7602 10.4922 22.1497 10.8209 22.4293C11.1495 22.7089 11.5685 22.8596 12 22.8534Z" fill="#333333"/>
<path d="M21.9 18.7533L21.6733 18.5534C21.0303 17.9804 20.4674 17.3234 20 16.6C19.4895 15.6017 19.1835 14.5115 19.1 13.3934V10.1C19.0973 9.69998 19.0616 9.30085 18.9933 8.90668C17.8641 8.67457 16.8497 8.05936 16.122 7.1652C15.3943 6.27104 14.9979 5.15288 15 4.00002V3.58002C14.3039 3.23748 13.5561 3.01222 12.7867 2.91335V2.07335C12.7867 1.83731 12.6929 1.61093 12.526 1.44402C12.3591 1.27712 12.1327 1.18335 11.8967 1.18335C11.6606 1.18335 11.4342 1.27712 11.2673 1.44402C11.1004 1.61093 11.0067 1.83731 11.0067 2.07335V2.94668C9.2838 3.18972 7.70704 4.04785 6.56747 5.36264C5.4279 6.67743 4.80248 8.36011 4.80666 10.1V13.3934C4.72316 14.5115 4.41718 15.6017 3.90666 16.6C3.44725 17.3216 2.89346 17.9785 2.25999 18.5534L2.03333 18.7533V20.6334H21.9V18.7533Z" fill="#333333"/>
</svg>
