<svg width="59" height="60" viewBox="0 0 59 60" fill="none" xmlns="http://www.w3.org/2000/svg">
<circle cx="29.5" cy="30" r="29.5" fill="#EB5757"/>
<path d="M18.6 20.9C17.9634 20.9 17.353 21.1529 16.9029 21.603C16.4528 22.0531 16.2 22.6635 16.2 23.3V34.5C16.2 35.1365 16.4528 35.747 16.9029 36.1971C17.353 36.6472 17.9634 36.9 18.6 36.9H27.4352C27.5523 35.6121 27.9519 34.3658 28.6055 33.2499C29.2591 32.134 30.1506 31.1759 31.2166 30.4437C32.2826 29.7115 33.4969 29.2232 34.773 29.0136C36.0491 28.8041 37.3558 28.8784 38.5999 29.2312V23.3C38.5999 22.6635 38.3471 22.0531 37.897 21.603C37.4469 21.1529 36.8365 20.9 36.1999 20.9H18.6ZM22.6 24.1C22.6 24.9487 22.2628 25.7627 21.6627 26.3628C21.0626 26.9629 20.2486 27.3 19.4 27.3H17.8V25.7H19.4C19.8243 25.7 20.2313 25.5315 20.5313 25.2314C20.8314 24.9313 21 24.5244 21 24.1V22.5H22.6V24.1ZM27.4 31.7C26.6573 31.7 25.9452 31.405 25.4201 30.8799C24.8949 30.3548 24.6 29.6426 24.6 28.9C24.6 28.1574 24.8949 27.4452 25.4201 26.9201C25.9452 26.395 26.6573 26.1 27.4 26.1C28.1426 26.1 28.8547 26.395 29.3799 26.9201C29.905 27.4452 30.2 28.1574 30.2 28.9C30.2 29.6426 29.905 30.3548 29.3799 30.8799C28.8547 31.405 28.1426 31.7 27.4 31.7ZM17.8 32.1V30.5H19.4C20.2486 30.5 21.0626 30.8372 21.6627 31.4373C22.2628 32.0374 22.6 32.8513 22.6 33.7V35.3H21V33.7C21 33.2757 20.8314 32.8687 20.5313 32.5687C20.2313 32.2686 19.8243 32.1 19.4 32.1H17.8ZM33.7999 24.1C33.7999 24.5244 33.9685 24.9313 34.2686 25.2314C34.5686 25.5315 34.9756 25.7 35.4 25.7H37V27.3H35.4C34.5513 27.3 33.7373 26.9629 33.1372 26.3628C32.5371 25.7627 32.2 24.9487 32.2 24.1V22.5H33.7999V24.1ZM19.536 38.5H27.4352C27.4842 39.0414 27.5833 39.577 27.7311 40.1H21.8C21.3034 40.1003 20.819 39.9465 20.4136 39.66C20.0081 39.3734 19.7015 38.9681 19.536 38.5ZM41.7999 26.5V30.9112C41.3064 30.5038 40.7699 30.1513 40.1999 29.86V24.236C40.6681 24.4015 41.0733 24.7082 41.3599 25.1136C41.6465 25.5191 41.8002 26.0035 41.7999 26.5ZM43.4 37.7C43.4 39.6096 42.6414 41.4409 41.2911 42.7912C39.9409 44.1415 38.1095 44.9 36.1999 44.9C34.2904 44.9 32.459 44.1415 31.1088 42.7912C29.7585 41.4409 29 39.6096 29 37.7C29 35.7905 29.7585 33.9591 31.1088 32.6089C32.459 31.2586 34.2904 30.5 36.1999 30.5C38.1095 30.5 39.9409 31.2586 41.2911 32.6089C42.6414 33.9591 43.4 35.7905 43.4 37.7ZM37.3312 37.7L39.1663 35.8664C39.3166 35.7162 39.401 35.5125 39.401 35.3C39.401 35.0876 39.3166 34.8838 39.1663 34.7336C39.0161 34.5834 38.8124 34.499 38.5999 34.499C38.3875 34.499 38.1838 34.5834 38.0336 34.7336L36.1999 36.5688L34.3664 34.7336C34.2161 34.5834 34.0124 34.499 33.7999 34.499C33.5875 34.499 33.3838 34.5834 33.2335 34.7336C33.0833 34.8838 32.9989 35.0876 32.9989 35.3C32.9989 35.5125 33.0833 35.7162 33.2335 35.8664L35.0688 37.7L33.2335 39.5336C33.1592 39.608 33.1002 39.6963 33.0599 39.7935C33.0197 39.8907 32.9989 39.9948 32.9989 40.1C32.9989 40.2052 33.0197 40.3094 33.0599 40.4066C33.1002 40.5037 33.1592 40.592 33.2335 40.6664C33.3079 40.7408 33.3962 40.7998 33.4934 40.8401C33.5906 40.8803 33.6948 40.901 33.7999 40.901C33.9051 40.901 34.0093 40.8803 34.1065 40.8401C34.2037 40.7998 34.292 40.7408 34.3664 40.6664L36.1999 38.8312L38.0336 40.6664C38.1079 40.7408 38.1962 40.7998 38.2934 40.8401C38.3906 40.8803 38.4948 40.901 38.5999 40.901C38.7051 40.901 38.8093 40.8803 38.9065 40.8401C39.0037 40.7998 39.092 40.7408 39.1663 40.6664C39.2407 40.592 39.2997 40.5037 39.34 40.4066C39.3802 40.3094 39.401 40.2052 39.401 40.1C39.401 39.9948 39.3802 39.8907 39.34 39.7935C39.2997 39.6963 39.2407 39.608 39.1663 39.5336L37.3312 37.7Z" fill="white"/>
</svg>
