<svg width="25" height="25" viewBox="0 0 25 25" fill="none" xmlns="http://www.w3.org/2000/svg">
<path d="M17.4156 20.575L16.749 15.2375C16.6545 14.4815 16.2871 13.786 15.7158 13.2819C15.1445 12.7778 14.4088 12.4997 13.6469 12.5H11.351C10.5895 12.5002 9.85425 12.7785 9.28342 13.2826C8.71259 13.7867 8.34547 14.4818 8.25104 15.2375L7.58333 20.575C7.54669 20.8682 7.57285 21.1659 7.66008 21.4483C7.74731 21.7306 7.89361 21.9912 8.08928 22.2127C8.28494 22.4342 8.52548 22.6115 8.79493 22.7328C9.06437 22.8542 9.35656 22.9169 9.65208 22.9167H15.3479C15.6434 22.9167 15.9354 22.854 16.2047 22.7325C16.4741 22.6111 16.7145 22.4337 16.91 22.2123C17.1056 21.9908 17.2518 21.7303 17.339 21.448C17.4261 21.1658 17.4523 20.8682 17.4156 20.575V20.575Z" stroke="#333333" stroke-width="2" stroke-linecap="round" stroke-linejoin="round"/>
<path d="M12.5 8.33337C14.2259 8.33337 15.625 6.93426 15.625 5.20837C15.625 3.48248 14.2259 2.08337 12.5 2.08337C10.7741 2.08337 9.375 3.48248 9.375 5.20837C9.375 6.93426 10.7741 8.33337 12.5 8.33337Z" stroke="#333333" stroke-width="2"/>
<path d="M4.16666 11.4584C5.31725 11.4584 6.24999 10.5257 6.24999 9.37508C6.24999 8.22449 5.31725 7.29175 4.16666 7.29175C3.01607 7.29175 2.08333 8.22449 2.08333 9.37508C2.08333 10.5257 3.01607 11.4584 4.16666 11.4584Z" stroke="#333333" stroke-width="2"/>
<path d="M20.8333 11.4584C21.9839 11.4584 22.9167 10.5257 22.9167 9.37508C22.9167 8.22449 21.9839 7.29175 20.8333 7.29175C19.6827 7.29175 18.75 8.22449 18.75 9.37508C18.75 10.5257 19.6827 11.4584 20.8333 11.4584Z" stroke="#333333" stroke-width="2"/>
<path d="M20.8333 14.5834H21.1521C21.6452 14.5833 22.1224 14.7582 22.4988 15.0769C22.8751 15.3957 23.1262 15.8376 23.2073 16.324L23.5542 18.4073C23.6039 18.7058 23.5881 19.0116 23.5077 19.3033C23.4274 19.595 23.2844 19.8658 23.0888 20.0967C22.8932 20.3276 22.6497 20.5131 22.3751 20.6403C22.1005 20.7675 21.8016 20.8334 21.499 20.8334H17.7083M4.16666 14.5834H3.84791C3.35475 14.5833 2.87755 14.7582 2.50122 15.0769C2.12489 15.3957 1.87383 15.8376 1.79271 16.324L1.44583 18.4073C1.39605 18.7058 1.41189 19.0116 1.49226 19.3033C1.57262 19.595 1.71557 19.8658 1.91117 20.0967C2.10677 20.3276 2.35032 20.5131 2.62489 20.6403C2.89945 20.7675 3.19843 20.8334 3.50104 20.8334H7.29166L4.16666 14.5834Z" stroke="#333333" stroke-width="2" stroke-linecap="round" stroke-linejoin="round"/>
</svg>
