<svg width="59" height="59" viewBox="0 0 59 59" fill="none" xmlns="http://www.w3.org/2000/svg">
<circle cx="29.5" cy="29.5" r="29.5" fill="#27AE60"/>
<path d="M21.3334 16.6666C20.5377 16.6666 19.7747 16.9827 19.2121 17.5453C18.6494 18.1079 18.3334 18.871 18.3334 19.6666V40.3333C18.3334 41.1289 18.6494 41.892 19.2121 42.4546C19.7747 43.0172 20.5377 43.3333 21.3334 43.3333H31.3334C32.1242 43.3333 32.883 43.0211 33.4449 42.4645C34.0067 41.908 34.326 41.1521 34.3334 40.3613V38.3346C34.3334 38.0694 34.228 37.8151 34.0405 37.6275C33.8529 37.44 33.5986 37.3346 33.3334 37.3346C32.728 37.3346 32.3467 37.1706 32.084 36.9586C31.8067 36.736 31.5774 36.392 31.404 35.9066C31.04 34.9 31 33.5733 31 32.3333C31 32.0798 30.9038 31.8358 30.7307 31.6506L30.512 31.4146C30.4401 31.3342 30.3645 31.2573 30.2854 31.184C30.1867 31.0906 29.8854 30.804 28.7067 29.6266C28.0827 29.0013 27.736 28.4733 27.6227 28.0693C27.5773 27.9293 27.5704 27.7796 27.6027 27.636C27.6524 27.4703 27.7465 27.3214 27.8747 27.2053C27.9903 27.0772 28.1388 26.9831 28.304 26.9333C28.4473 26.9014 28.5966 26.9088 28.736 26.9546C29.14 27.068 29.668 27.416 30.2934 28.0413C31.0134 28.7613 31.696 29.436 32.308 30.0413C33.3214 31.044 34.14 31.8546 34.6014 32.348C34.7823 32.5421 35.0328 32.6564 35.298 32.6658C35.5632 32.6752 35.8212 32.5788 36.0154 32.398C36.2095 32.2171 36.3238 31.9665 36.3332 31.7013C36.3426 31.4361 36.2463 31.1781 36.0654 30.984C35.4974 30.3903 34.9196 29.8062 34.332 29.232V24.7466L38.1214 28.536C38.684 29.0986 39 29.8613 39 30.656V42.3333C39 42.5985 39.1054 42.8529 39.2929 43.0404C39.4805 43.2279 39.7348 43.3333 40 43.3333C40.2653 43.3333 40.5196 43.2279 40.7071 43.0404C40.8947 42.8529 41 42.5985 41 42.3333V30.6573C41.0002 30.0006 40.8709 29.3504 40.6197 28.7437C40.3685 28.137 40.0003 27.5857 39.536 27.1213L34.3334 21.9186V19.6653C34.333 18.8699 34.0168 18.1072 33.4542 17.5448C32.8917 16.9825 32.1288 16.6666 31.3334 16.6666H21.3334ZM30.8307 38.5173C31.2694 38.8682 31.7839 39.112 32.3334 39.2293V39.3333H31.3334C31.0682 39.3333 30.8138 39.4387 30.6263 39.6262C30.4387 39.8137 30.3334 40.0681 30.3334 40.3333V41.3333H28.3334V40.3333C28.3334 39.1426 29.0267 38.1133 30.0334 37.6293C30.2467 37.9546 30.5094 38.2586 30.8307 38.5173ZM29.0014 32.728C29.004 33.0653 29.012 33.4293 29.032 33.808C28.4112 34.2477 27.6922 34.529 26.9378 34.6273C26.1834 34.7257 25.4163 34.6381 24.7035 34.3721C23.9907 34.1062 23.3537 33.67 22.848 33.1016C22.3423 32.5331 21.9833 31.8497 21.8022 31.1107C21.6211 30.3718 21.6234 29.5998 21.8089 28.8619C21.9944 28.1241 22.3575 27.4427 22.8665 26.8773C23.3756 26.3119 24.0152 25.8795 24.7296 25.6179C25.444 25.3562 26.2115 25.2731 26.9654 25.376C26.7867 25.4946 26.6187 25.6333 26.46 25.792C26.0707 26.1813 25.7947 26.632 25.6654 27.1386C25.5347 27.6453 25.5667 28.144 25.6974 28.6106C25.9507 29.508 26.584 30.332 27.2934 31.0413C27.8361 31.5902 28.3859 32.132 28.9427 32.6666L28.948 32.6706L28.996 32.7226L29.0014 32.728ZM22.3334 18.6666H24.3334V19.6666C24.3334 20.4623 24.0173 21.2253 23.4547 21.7879C22.8921 22.3506 22.129 22.6666 21.3334 22.6666H20.3334V20.6666H21.3334C21.5986 20.6666 21.8529 20.5613 22.0405 20.3737C22.228 20.1862 22.3334 19.9318 22.3334 19.6666V18.6666ZM28.3334 18.6666H30.3334V19.6666C30.3334 20.2186 30.7814 20.6666 31.3334 20.6666H32.3334V22.6666H31.3334C30.5377 22.6666 29.7747 22.3506 29.2121 21.7879C28.6494 21.2253 28.3334 20.4623 28.3334 19.6666V18.6666ZM24.3334 41.3333H22.3334V40.3333C22.3334 40.0681 22.228 39.8137 22.0405 39.6262C21.8529 39.4387 21.5986 39.3333 21.3334 39.3333H20.3334V37.3333H21.3334C22.129 37.3333 22.8921 37.6494 23.4547 38.212C24.0173 38.7746 24.3334 39.5376 24.3334 40.3333V41.3333Z" fill="white"/>
</svg>
